<svg width="96" height="18" viewBox="0 0 96 18" fill="none" xmlns="http://www.w3.org/2000/svg">
<path d="M0.764266 17.8411C0.2866 17.8411 0 17.5426 0 17.041V1.27802C0 0.668998 0.406017 0.274925 1.01504 0.274925C1.56436 0.274925 1.88678 0.537638 2.13756 1.12278L8.26363 15.5244H8.33528L14.4375 1.12278C14.6882 0.537638 15.0346 0.274925 15.5839 0.274925C16.1929 0.274925 16.5989 0.668998 16.5989 1.27802V17.041C16.5989 17.5426 16.3123 17.8411 15.8346 17.8411C15.357 17.8411 15.0704 17.5426 15.0704 17.041V3.535H14.9987L9.29061 16.9097C9.07566 17.4112 8.77712 17.6262 8.29945 17.6262C7.82179 17.6262 7.5113 17.4112 7.3083 16.9335L1.60018 3.535H1.52853V17.041C1.52853 17.5426 1.22999 17.8411 0.764266 17.8411ZM31.0284 17.9486C26.2279 17.9486 23.2066 14.5213 23.2066 9.06399C23.2066 3.60665 26.2279 0.16745 31.0284 0.16745C35.829 0.16745 38.8621 3.60665 38.8621 9.06399C38.8621 14.5213 35.8409 17.9486 31.0284 17.9486ZM31.0284 16.432C34.802 16.432 37.1903 13.5779 37.1903 9.06399C37.1903 4.5381 34.802 1.68404 31.0284 1.68404C27.2549 1.68404 24.8785 4.5381 24.8785 9.06399C24.8785 13.5779 27.2549 16.432 31.0284 16.432ZM46.27 17.8411C45.7803 17.8411 45.4699 17.5187 45.4699 16.9932V1.21832C45.4699 0.645115 45.8401 0.274925 46.4013 0.274925C46.8312 0.274925 47.0581 0.406283 47.3447 0.824242L57.1846 14.8318H57.2682V1.12278C57.2682 0.597347 57.5787 0.274925 58.0803 0.274925C58.5699 0.274925 58.8803 0.597347 58.8803 1.12278V16.9694C58.8803 17.5187 58.546 17.8411 57.9847 17.8411C57.5548 17.8411 57.3518 17.7336 57.0652 17.3276L47.1656 3.27228H47.082V16.9932C47.082 17.5187 46.7715 17.8411 46.27 17.8411ZM66.9927 17.6739C66.4912 17.6739 66.1807 17.3515 66.1807 16.8261V1.28996C66.1807 0.76453 66.4912 0.442108 66.9927 0.442108H75.9609C76.4266 0.442108 76.7491 0.740646 76.7491 1.18249C76.7491 1.61239 76.4266 1.92287 75.9609 1.92287H67.8047V8.1206H75.531C75.9967 8.1206 76.3072 8.41914 76.3072 8.84904C76.3072 9.27894 75.9967 9.57748 75.531 9.57748H67.8047V16.1932H75.9609C76.4266 16.1932 76.7491 16.5036 76.7491 16.9335C76.7491 17.3754 76.4266 17.6739 75.9609 17.6739H66.9927ZM89.1127 17.8411C88.6111 17.8411 88.2887 17.5187 88.2887 16.9932V10.2223L82.5209 1.54074C82.3895 1.33773 82.3537 1.18249 82.3537 0.991425C82.3537 0.585408 82.7 0.274925 83.1418 0.274925C83.4762 0.274925 83.6673 0.394343 83.8703 0.704826L89.0768 8.62215H89.1365L94.3431 0.704826C94.5461 0.394343 94.7372 0.274925 95.0715 0.274925C95.5134 0.274925 95.8597 0.585408 95.8597 0.991425C95.8597 1.18249 95.8119 1.33773 95.6806 1.54074L89.9247 10.2223V16.9932C89.9247 17.5187 89.6023 17.8411 89.1127 17.8411Z" fill="url(#paint0_linear_1_10)"/>
<defs>
<linearGradient id="paint0_linear_1_10" x1="-5.19434" y1="8.61947" x2="107.679" y2="29.5606" gradientUnits="userSpaceOnUse">
<stop stop-color="#C432F8"/>
<stop offset="1" stop-color="#42A2E7"/>
</linearGradient>
</defs>
</svg>
